HIERARCHY
ROOT Hips
{
	OFFSET 0.000000 0.000000 0.000000
	CHANNELS 6 Xposition Yposition Zposition Xrotation Yrotation Zrotation
	JOINT LeftUpLeg_virtual
	{
		OFFSET 0.000000 0.000000 0.000000
		CHANNELS 3 Xrotation Yrotation Zrotation
		JOINT LeftUpLeg
		{
			OFFSET 11.394100 -6.187798 -0.413800
			CHANNELS 3 Xrotation Yrotation Zrotation
			JOINT LeftLeg
			{
				OFFSET 0.430247 -32.302673 3.732800
				CHANNELS 3 Xrotation Yrotation Zrotation
				JOINT LeftFoot
				{
					OFFSET -0.430247 -48.264931 -6.423300
					CHANNELS 3 Xrotation Yrotation Zrotation
					JOINT LeftToeBase
					{
						OFFSET 4.230900 -16.068199 23.438400
						CHANNELS 3 Xrotation Yrotation Zrotation
						JOINT LeftToe_End
						{
							OFFSET 4.510700 0.695400 19.974600
							CHANNELS 3 Xrotation Yrotation Zrotation
							End Site
							{
								OFFSET 0 0 0
							}
						}
					}
				}
			}
		}
	}
	JOINT RightUpLeg_virtual
	{
		OFFSET 0.000000 0.000000 0.000000
		CHANNELS 3 Xrotation Yrotation Zrotation
		JOINT RightUpLeg
		{
			OFFSET -11.333700 -6.187798 -0.413800
			CHANNELS 3 Xrotation Yrotation Zrotation
			JOINT RightLeg
			{
				OFFSET -0.430392 -32.302628 3.733000
				CHANNELS 3 Xrotation Yrotation Zrotation
				JOINT RightFoot
				{
					OFFSET 0.430392 -48.264973 -6.423500
					CHANNELS 3 Xrotation Yrotation Zrotation
					JOINT RightToeBase
					{
						OFFSET -4.230900 -16.068199 23.438400
						CHANNELS 3 Xrotation Yrotation Zrotation
						JOINT RightToe_End
						{
							OFFSET -4.510700 0.695400 19.974600
							CHANNELS 3 Xrotation Yrotation Zrotation
							End Site
							{
								OFFSET 0 0 0
							}
						}
					}
				}
			}
		}
	}
	JOINT Spine_virtual
	{
		OFFSET 0.000000 0.000000 0.000000
		CHANNELS 3 Xrotation Yrotation Zrotation
		JOINT Spine
		{
			OFFSET -0.002400 12.777504 0.315300
			CHANNELS 3 Xrotation Yrotation Zrotation
			JOINT Spine1
			{
				OFFSET -0.002067 5.816869 0.032633
				CHANNELS 3 Xrotation Yrotation Zrotation
				JOINT Spine1_split
				{
					OFFSET -0.002067 5.816869 0.032633
					CHANNELS 3 Xrotation Yrotation Zrotation
					JOINT Spine2
					{
						OFFSET -0.002067 5.816869 0.032633
						CHANNELS 3 Xrotation Yrotation Zrotation
						JOINT Neck_virtual
						{
							OFFSET 0.000000 0.000000 0.000000
							CHANNELS 3 Xrotation Yrotation Zrotation
							JOINT Neck
							{
								OFFSET -0.003700 21.199493 -0.826900
								CHANNELS 3 Xrotation Yrotation Zrotation
								JOINT Head
								{
									OFFSET 0.000000 20.442200 4.834800
									CHANNELS 3 Xrotation Yrotation Zrotation
									JOINT HeadTop_End
									{
										OFFSET 0.000000 34.668396 4.968400
										CHANNELS 3 Xrotation Yrotation Zrotation
										End Site
										{
											OFFSET 0 0 0
										}
									}
								}
							}
						}
						JOINT LeftShoulder_virtual
						{
							OFFSET 0.000000 0.000000 0.000000
							CHANNELS 3 Xrotation Yrotation Zrotation
							JOINT LeftShoulder
							{
								OFFSET 3.288150 8.794197 -1.372250
								CHANNELS 3 Xrotation Yrotation Zrotation
								JOINT LeftShoulder_split
								{
									OFFSET 3.288150 8.794197 -1.372250
									CHANNELS 3 Xrotation Yrotation Zrotation
									JOINT LeftArm
									{
										OFFSET 11.953299 -2.279007 -0.146200
										CHANNELS 3 Xrotation Yrotation Zrotation
										JOINT LeftForeArm
										{
											OFFSET 18.448900 0.000000 0.000000
											CHANNELS 3 Xrotation Yrotation Zrotation
											JOINT LeftHand
											{
												OFFSET 29.527798 0.000000 0.000000
												CHANNELS 3 Xrotation Yrotation Zrotation
												End Site
												{
													OFFSET 0 0 0
												}
											}
										}
									}
								}
							}
						}
						JOINT RightShoulder_virtual
						{
							OFFSET 0.000000 0.000000 0.000000
							CHANNELS 3 Xrotation Yrotation Zrotation
							JOINT RightShoulder
							{
								OFFSET -3.249400 8.794197 -1.372250
								CHANNELS 3 Xrotation Yrotation Zrotation
								JOINT RightShoulder_split
								{
									OFFSET -3.249400 8.794197 -1.372250
									CHANNELS 3 Xrotation Yrotation Zrotation
									JOINT RightArm
									{
										OFFSET -11.953299 -2.279007 -0.146200
										CHANNELS 3 Xrotation Yrotation Zrotation
										JOINT RightForeArm
										{
											OFFSET -18.448900 0.000000 0.000000
											CHANNELS 3 Xrotation Yrotation Zrotation
											JOINT RightHand
											{
												OFFSET -29.527802 0.000000 0.000000
												CHANNELS 3 Xrotation Yrotation Zrotation
												End Site
												{
													OFFSET 0 0 0
												}
											}
										}
									}
								}
							}
						}
					}
				}
			}
		}
	}
}
MOTION
Frames: 8
Frame Time: 0.03333333
6.338988 103.122772 -6.379782 0.000000 0.000000 0.000000 -2.506479 6.600414 -1.333643 -15.125048 8.904025 8.685310 18.075455 -1.782408 4.159753 -1.987016 5.135174 -13.585519 1.925519 -3.447558 -1.506080 0.000000 0.000000 0.000000 -2.255054 7.487288 -1.551974 -11.215786 -1.588625 -1.146921 10.708410 1.641374 -0.618848 0.532625 -4.429752 4.481285 2.388027 -0.186005 -10.648564 0.000000 0.000000 0.000000 -3.313162 11.003935 -2.023830 2.268671 -3.468174 2.266546 4.141168 -0.740347 0.378469 0.163109 -0.568473 0.118597 0.000000 0.000000 0.000000 4.037072 0.850717 0.525772 -6.021073 7.506557 6.993352 7.038257 -7.849472 -4.659398 0.000000 0.000000 0.000000 3.565959 -0.597732 0.525599 1.448165 -4.377732 -1.337269 1.694829 -2.899327 -1.009421 0.823338 9.576737 -82.053986 15.491265 -23.512878 8.225353 0.000000 0.000000 0.000000 3.843225 -0.358642 0.931880 1.948640 -0.995964 5.161128 -6.954540 -0.436863 -1.383687 -2.315200 12.781197 75.468522 1.502360 12.831636 -0.181651 0.000000 0.000000 0.000000 
6.205161 103.099800 -6.259109 0.000000 0.000000 0.000000 -2.510276 6.558521 -1.377530 -14.999667 8.881770 8.737264 18.089824 -1.885138 4.173974 -1.982610 5.192372 -13.582278 1.866999 -3.451019 -1.470191 0.000000 0.000000 0.000000 -2.221073 7.268520 -1.594098 -11.163995 -1.561406 -1.088183 10.833022 1.702164 -0.657129 0.421459 -4.303233 4.080969 2.769086 -0.239915 -10.436696 0.000000 0.000000 0.000000 -3.170116 11.025274 -1.936914 2.351128 -3.494713 2.167984 4.058366 -0.768589 0.382074 0.165690 -0.639838 0.097420 0.000000 0.000000 0.000000 4.036338 0.848385 0.526996 -5.951560 7.533826 6.935640 7.311659 -7.829255 -4.712769 0.000000 0.000000 0.000000 3.515434 -0.620461 0.529837 1.481871 -4.434655 -1.432882 1.609699 -2.638690 -1.084088 0.763154 9.471130 -81.977085 15.507938 -23.649772 8.175207 0.000000 0.000000 0.000000 3.797102 -0.367543 0.960051 2.003666 -0.984338 5.193024 -6.951704 -0.253586 -1.350573 -2.087481 12.702763 75.455477 1.458139 12.928352 -0.183581 0.000000 0.000000 0.000000 
6.031073 103.042526 -6.129450 0.000000 0.000000 0.000000 -2.507567 6.273586 -1.400449 -14.637162 8.826337 8.790297 18.016844 -2.015578 4.210783 -2.266833 5.393060 -13.314111 1.652724 -3.472716 -1.414986 0.000000 0.000000 0.000000 -2.149321 6.894525 -1.609745 -11.297321 -1.531451 -1.070406 11.003028 1.833325 -0.703099 0.340638 -3.987064 3.652808 2.797524 -0.276382 -10.389526 0.000000 0.000000 0.000000 -3.024522 10.801002 -1.828155 2.636915 -3.571302 1.978042 3.881868 -0.768789 0.403941 0.159674 -0.693158 0.077999 0.000000 0.000000 0.000000 3.949401 0.865857 0.549471 -5.828536 7.631248 6.858491 7.704433 -7.670173 -4.724632 0.000000 0.000000 0.000000 3.368565 -0.625189 0.551701 1.513559 -4.506581 -1.620284 1.555593 -2.431571 -1.218820 0.717893 9.188794 -81.797881 15.533092 -23.805690 8.038992 0.000000 0.000000 0.000000 3.621815 -0.365536 1.007186 2.062712 -0.860466 5.278151 -6.849269 -0.130952 -1.378200 -1.675597 12.901594 75.322445 1.367027 13.192015 -0.142088 0.000000 0.000000 0.000000 
5.823717 102.947998 -5.972137 0.000000 0.000000 0.000000 -2.468639 5.839469 -1.395564 -14.172200 8.751562 8.878361 17.893403 -2.122384 4.232514 -2.759767 5.796626 -12.849841 1.943040 -3.501851 -1.499104 0.000000 0.000000 0.000000 -2.033699 6.386060 -1.605204 -11.617527 -1.526585 -1.087026 11.249091 2.020143 -0.734649 0.384259 -3.521661 3.312897 2.442948 -0.303967 -10.503897 0.000000 0.000000 0.000000 -2.882396 10.292136 -1.727738 3.089204 -3.682745 1.722348 3.625558 -0.751458 0.446017 0.146802 -0.726769 0.071364 0.000000 0.000000 0.000000 3.790688 0.898516 0.595218 -5.645621 7.792909 6.761179 8.144845 -7.372570 -4.665069 0.000000 0.000000 0.000000 3.154395 -0.614158 0.595772 1.546983 -4.547908 -1.859314 1.493746 -2.293816 -1.355875 0.697350 8.817577 -81.560190 15.590311 -23.979621 7.855815 0.000000 0.000000 0.000000 3.340283 -0.357037 1.072944 2.127533 -0.678281 5.403894 -6.723906 -0.163960 -1.441753 -1.155754 13.341023 75.086223 1.244256 13.631793 -0.067107 0.000000 0.000000 0.000000 
5.568806 102.858307 -5.783434 0.000000 0.000000 0.000000 -2.339760 5.287286 -1.409618 -13.760246 8.760993 9.050402 17.657665 -2.197645 4.176677 -3.221388 6.338169 -12.511225 2.854674 -3.529233 -1.711908 0.000000 0.000000 0.000000 -1.858513 5.715690 -1.589386 -12.095404 -1.520830 -1.118372 11.538333 2.243736 -0.734102 0.568854 -2.937298 3.096584 1.945177 -0.342550 -10.743597 0.000000 0.000000 0.000000 -2.736387 9.498845 -1.668928 3.611593 -3.805552 1.446373 3.315714 -0.734329 0.506962 0.158547 -0.736679 0.075006 0.000000 0.000000 0.000000 3.576136 0.934497 0.656368 -5.407740 8.007996 6.663124 8.617511 -6.918864 -4.513351 0.000000 0.000000 0.000000 2.911203 -0.596909 0.661785 1.574580 -4.507057 -2.119289 1.407021 -2.288428 -1.432761 0.680059 8.481594 -81.313716 15.709394 -24.142233 7.683863 0.000000 0.000000 0.000000 3.008257 -0.350030 1.152918 2.205310 -0.511754 5.549363 -6.580769 -0.287150 -1.586023 -0.604242 13.981401 74.755328 1.114681 14.205202 0.014925 0.000000 0.000000 0.000000 
5.239060 102.783875 -5.580034 0.000000 0.000000 0.000000 -2.095929 4.580589 -1.470807 -13.380894 8.887594 9.297781 17.221562 -2.246727 4.029084 -3.487026 7.006570 -12.470143 3.830715 -3.574119 -1.818881 0.000000 0.000000 0.000000 -1.628195 4.929294 -1.611776 -12.653799 -1.457129 -1.097758 11.815036 2.459070 -0.696247 0.724838 -2.288862 2.901739 1.671298 -0.410859 -11.026353 0.000000 0.000000 0.000000 -2.548239 8.469711 -1.673721 4.088472 -3.907805 1.203311 2.982809 -0.737006 0.577678 0.189998 -0.745526 0.094692 0.000000 0.000000 0.000000 3.330225 0.955921 0.720707 -5.141293 8.254947 6.594899 9.119787 -6.305528 -4.280122 0.000000 0.000000 0.000000 2.661201 -0.589953 0.737261 1.588219 -4.369207 -2.360094 1.379778 -2.355082 -1.427694 0.633924 8.275940 -81.116003 15.903213 -24.204744 7.548592 0.000000 0.000000 0.000000 2.674524 -0.356255 1.233404 2.299539 -0.413047 5.710297 -6.495369 -0.477864 -1.730529 -0.083610 14.747949 74.340462 1.019349 14.831793 0.066862 0.000000 0.000000 0.000000 
4.794110 102.693634 -5.328859 0.000000 0.000000 0.000000 -1.742825 3.714199 -1.588897 -13.016983 9.147342 9.592550 16.617097 -2.111017 3.839659 -3.800713 7.898747 -12.518932 4.603915 -3.668773 -1.705262 0.000000 0.000000 0.000000 -1.306023 4.019249 -1.705231 -13.192622 -1.249574 -0.950785 12.050034 2.586169 -0.639276 0.662839 -1.650096 2.535367 1.890483 -0.511204 -11.270496 0.000000 0.000000 0.000000 -2.264057 7.284825 -1.754293 4.430765 -3.979523 1.037063 2.654048 -0.777639 0.637114 0.201537 -0.771389 0.118890 0.000000 0.000000 0.000000 3.083379 0.944404 0.771403 -4.881882 8.510839 6.571973 9.664944 -5.589918 -3.984092 0.000000 0.000000 0.000000 2.427655 -0.607620 0.806050 1.582625 -4.135518 -2.557655 1.441600 -2.474474 -1.405369 0.571069 8.238199 -80.975485 16.169290 -24.093009 7.436650 0.000000 0.000000 0.000000 2.366280 -0.394471 1.293224 2.404344 -0.418477 5.917684 -6.477449 -0.681703 -1.771704 0.404436 15.593810 73.859501 1.002122 15.429590 0.050095 0.000000 0.000000 0.000000 
4.246558 102.580276 -5.006310 0.000000 0.000000 0.000000 -1.344770 2.682274 -1.785734 -12.711576 9.480419 9.921115 16.071971 -1.724427 3.684458 -4.214138 9.047625 -12.701425 5.475330 -3.819032 -1.473786 0.000000 0.000000 0.000000 -0.890150 3.017308 -1.872816 -13.644646 -0.797854 -0.637430 12.187038 2.590137 -0.587216 0.377587 -1.066156 1.993186 2.507531 -0.626565 -11.462607 0.000000 0.000000 0.000000 -1.894799 6.015587 -1.901407 4.606317 -4.015499 0.975128 2.353451 -0.864952 0.668594 0.204077 -0.815054 0.144429 0.000000 0.000000 0.000000 2.845578 0.884126 0.788379 -4.660831 8.772625 6.609663 10.255958 -4.778097 -3.673422 0.000000 0.000000 0.000000 2.215183 -0.665428 0.853957 1.557539 -3.829988 -2.687450 1.566162 -2.731590 -1.397988 0.518307 8.349726 -80.866728 16.462062 -23.753487 7.295971 0.000000 0.000000 0.000000 2.095645 -0.481566 1.311038 2.502337 -0.548399 6.193038 -6.490870 -0.752834 -1.657150 0.888107 16.447987 73.321650 1.089654 15.912790 -0.058782 0.000000 0.000000 0.000000 
